# xmcd
#
# Track frame offsets: 
#        150
#        17617
#        32335
#        45327
#        58792
#        67010
#        83802
#        93100
#        107187
#        110982
#        119537
#        127425
#        142592
#        156130
#        165650
#        178310
#        190125
#        199262
#        209807
#        220855
#        231772
#        240650
#        252032
#        261905
#        273757
#        285692
#        296602
#        307097
#        316865
#        327705
#        337697
#
# Disc length: 4633 seconds
#
# Revision: 0
# Processed by: cddbd v1.5.2PL0 Copyright (c) Steve Scherf et al.
# Submitted via: ExactAudioCopy v1.0b3
#
DISCID=d512171f
DTITLE=Bob Wills and His Texas Playboys - Faded Love 1947-1973 [CD9)
DYEAR=2005
DGENRE=Country
TTITLE0=Big Taters In The Sandy Land
TTITLE1=Mayflower Waltz
TTITLE2=Billy In The Low Ground
TTITLE3=Beaumont Rag
TTITLE4=Faded Love
TTITLE5=Dian Waltz
TTITLE6=Done Gone
TTITLE7=Put Your Little Foot
TTITLE8=Bob's First Fiddle Tune
TTITLE9=Bob's Schottische
TTITLE10=Gone Indian
TTITLE11=No Disappointments In Heaven
TTITLE12=Faded Love
TTITLE13=Wills Junction
TTITLE14=You'll Never Walk Out Of My Heart
TTITLE15=Betty's Waltz
TTITLE16=(Old) San Antonio Rose
TTITLE17=She Won't Let Me Forget Her
TTITLE18=I Just Can't Take It Anymore
TTITLE19=She's Killin' Me
TTITLE20=If No News Is Good News
TTITLE21=You're The Only Star In My Blue Heaven
TTITLE22=A Big Ball In Cowtown
TTITLE23=Where Do I Go From Here
TTITLE24=Gone Indian
TTITLE25=Pinto Beans
TTITLE26=Guess I'll Move On Down The Line
TTITLE27=My Adobe Hacienda
TTITLE28=What's Fort Worth
TTITLE29=Deep In The Heart Of Texas
TTITLE30=Kansas City
EXTD=
EXTT0=
EXTT1=
EXTT2=
EXTT3=
EXTT4=
EXTT5=
EXTT6=
EXTT7=
EXTT8=
EXTT9=
EXTT10=
EXTT11=
EXTT12=
EXTT13=
EXTT14=
EXTT15=
EXTT16=
EXTT17=
EXTT18=
EXTT19=
EXTT20=
EXTT21=
EXTT22=
EXTT23=
EXTT24=
EXTT25=
EXTT26=
EXTT27=
EXTT28=
EXTT29=
EXTT30=
PLAYORDER=
